<svg xmlns="http://www.w3.org/2000/svg" xmlns:xlink="http://www.w3.org/1999/xlink" width="104" height="104" viewBox="0 0 104 104"><defs><path id="t9y2a" d="M872 1128v-104h104v104zm3-52c0 27.062 21.938 49 49 49s49-21.938 49-49-21.938-49-49-49-49 21.938-49 49z"/><path id="t9y2b" d="M924 1027c27.062 0 49 21.938 49 49s-21.938 49-49 49-49-21.938-49-49 21.938-49 49-49z"/><path id="t9y2d" d="M948.684 1062.996l-27.24 27.65 2.323 2.358 27.239-27.65z"/><path id="t9y2e" d="M898.333 1063.03l27.429 27.586-2.339 2.353-27.43-27.586z"/><clipPath id="t9y2c"><use fill="#fff" xlink:href="#t9y2a"/></clipPath></defs><g><g transform="translate(-872 -1024)"><use fill="rgba(0,0,0,0.05)" xlink:href="#t9y2b"/><use fill="#fff" fill-opacity="0" stroke="#222b32" stroke-linecap="round" stroke-linejoin="round" stroke-miterlimit="50" stroke-opacity=".57" stroke-width="6" clip-path="url(&quot;#t9y2c&quot;)" xlink:href="#t9y2b"/></g><g opacity=".55" transform="translate(-872 -1024)"><use fill="#f6f8fb" xlink:href="#t9y2d"/><use xlink:href="#t9y2d"/></g><g opacity=".55" transform="translate(-872 -1024)"><use fill="#f6f8fb" xlink:href="#t9y2e"/><use xlink:href="#t9y2e"/></g></g></svg>
